HIERARCHY
ROOT Hips
{
	OFFSET -3.958830 18.904000 13.208200
	CHANNELS 6 Xposition Yposition Zposition Zrotation Yrotation Xrotation 
	JOINT LHipJoint
	{
		OFFSET 0.000000 0.000000 0.000000
		CHANNELS 3 Zrotation Yrotation Xrotation
		JOINT LeftUpLeg
		{
			OFFSET 1.800000 -1.400000 0.085000
			CHANNELS 3 Zrotation Yrotation Xrotation
			JOINT LeftLeg
			{
				OFFSET 2.215000 -6.000000 0.000000
				CHANNELS 3 Zrotation Yrotation Xrotation
				JOINT LeftFoot
				{
					OFFSET 2.500000 -6.900000 0.000000
					CHANNELS 3 Zrotation Yrotation Xrotation
					JOINT LeftToeBase
					{
						OFFSET 0.200000 -0.500000 1.950000
						CHANNELS 3 Zrotation Yrotation Xrotation
						End Site
						{
							OFFSET 0.000000 0.000000 0.000000
						}
					}
				}
			}
		}
	}
	JOINT RHipJoint
	{
		OFFSET 0.000000 0.000000 0.000000
		CHANNELS 3 Zrotation Yrotation Xrotation
		JOINT RightUpLeg
		{
			OFFSET -1.800000 -1.400000 0.085000
			CHANNELS 3 Zrotation Yrotation Xrotation
			JOINT RightLeg
			{
				OFFSET -2.215000 -6.000000 0.000000
				CHANNELS 3 Zrotation Yrotation Xrotation
				JOINT RightFoot
				{
					OFFSET -2.500000 -6.900000 0.000000
					CHANNELS 3 Zrotation Yrotation Xrotation
					JOINT RightToeBase
					{
						OFFSET -0.200000 -0.500000 1.950000
						CHANNELS 3 Zrotation Yrotation Xrotation
						End Site
						{
							OFFSET 0.000000 0.000000 0.000000
						}
					}
				}
			}
		}
	}
	JOINT LowerBack
	{
		OFFSET 0.000000 0.000000 0.000000
		CHANNELS 3 Zrotation Yrotation Xrotation
		JOINT Spine
		{
			OFFSET -0.087000 1.940000 -0.288900
			CHANNELS 3 Zrotation Yrotation Xrotation
			JOINT Spine1
			{
				OFFSET 0.000000 1.950000 0.060000
				CHANNELS 3 Zrotation Yrotation Xrotation
				JOINT Neck
				{
					OFFSET 0.000000 0.000000 0.000000
					CHANNELS 3 Zrotation Yrotation Xrotation
					JOINT Neck1
					{
						OFFSET 0.000000 1.600000 0.340000
						CHANNELS 3 Zrotation Yrotation Xrotation
						JOINT Head
						{
							OFFSET 0.000000 1.667000 -0.240000
							CHANNELS 3 Zrotation Yrotation Xrotation
							End Site
							{
								OFFSET 0.000000 0.000000 0.000000
							}
						}
					}
				}
				JOINT LeftShoulder
				{
					OFFSET 0.000000 0.000000 0.000000
					CHANNELS 3 Zrotation Yrotation Xrotation
					JOINT LeftArm
					{
						OFFSET 2.700000 1.550000 -0.730000
						CHANNELS 3 Zrotation Yrotation Xrotation
						JOINT LeftForeArm
						{
							OFFSET 5.450000 0.000000 0.000000
							CHANNELS 3 Zrotation Yrotation Xrotation
							JOINT LeftHand
							{
								OFFSET 3.450000 0.000000 0.000000
								CHANNELS 3 Zrotation Yrotation Xrotation
								JOINT LeftHandIndex1
								{
									OFFSET 0.750000 0.000000 0.000000
									CHANNELS 3 Zrotation Yrotation Xrotation
									End Site
									{
										OFFSET 0.000000 0.000000 0.000000
									}
								}
							}
						}
					}
				}
				JOINT RightShoulder
				{
					OFFSET 0.000000 0.000000 0.000000
					CHANNELS 3 Zrotation Yrotation Xrotation
					JOINT RightArm
					{
						OFFSET -2.700000 1.550000 -0.730000
						CHANNELS 3 Zrotation Yrotation Xrotation
						JOINT RightForeArm
						{
							OFFSET -5.450000 0.000000 0.000000
							CHANNELS 3 Zrotation Yrotation Xrotation
							JOINT RightHand
							{
								OFFSET -3.450000 0.000000 0.000000
								CHANNELS 3 Zrotation Yrotation Xrotation
								JOINT RightHandIndex1
								{
									OFFSET -0.750000 0.000000 0.000000
									CHANNELS 3 Zrotation Yrotation Xrotation
									End Site
									{
										OFFSET 0.000000 0.000000 0.000000
									}
								}
							}
						}
					}
				}
			}
		}
	}
}
MOTION
Frames: 8
Frame Time: 0.016667
-1.969150 17.916840 -3.827060 -32.181164 40.949203 -39.618686 -15.567423 12.973109 0.717668 18.733510 -1.477641 -12.423431 11.091543 4.211032 36.344379 -0.306499 6.483456 2.243822 0.696490 0.645860 0.220310 18.445344 -7.514091 6.664290 -30.437330 6.636974 -63.495343 24.466051 -16.389142 39.819551 -1.065425 -8.132407 1.377356 0.491830 0.400380 0.160560 -4.504936 -2.265556 -8.917924 21.346248 -11.817886 42.616731 -7.415176 -5.604131 19.418843 3.504574 0.229998 -6.978785 -2.951437 -6.564753 36.360010 14.037230 -11.461850 -21.788080 4.944012 -34.777592 0.700233 3.641211 -39.374469 -12.845294 98.236073 -41.372863 -51.901798 -3.809886 2.420907 0.426740 0.000610 0.053610 0.380870 -10.918368 31.172380 3.236248 -15.651403 20.452664 -17.422081 -94.427802 53.717298 -57.226981 1.715966 -0.729156 -0.148670 0.501130 -0.117030 0.117070 
-1.978170 17.942700 -3.788000 -33.217470 42.602509 -40.630557 -15.617796 12.924220 0.658283 18.942253 -1.164311 -12.761261 11.025089 4.331783 35.929831 -0.322835 6.431265 2.253907 0.659620 0.560620 0.238790 18.431333 -7.323230 6.816238 -33.279622 6.044217 -63.144613 28.484617 -20.313109 43.364060 -1.395065 -9.391219 0.998279 0.426760 0.363540 0.152830 -4.500838 -2.379377 -9.072901 21.748887 -11.438084 42.796917 -7.143823 -5.172739 19.210971 3.635683 0.995475 -7.717995 -2.479737 -7.753150 38.687938 16.356850 -12.407940 -23.655290 4.533925 -36.023096 0.888192 -3.104694 -41.361877 -10.036043 103.008458 -45.513184 -61.165682 -3.776729 2.179334 0.517050 -0.057330 0.086700 0.346840 -10.888322 31.867875 4.444718 -12.553831 19.543678 -16.575841 -102.284322 55.266780 -69.072566 1.775143 -0.530003 -0.172370 0.497000 -0.098780 0.083290 
-2.011890 17.976350 -3.721140 -34.224676 43.639932 -40.533989 -15.652045 12.758768 0.627128 20.071050 -0.524898 -13.933974 9.984316 5.006879 34.748919 -0.432719 6.399602 2.224193 0.502690 0.251720 0.261010 18.446175 -6.964748 7.174629 -35.561394 7.176200 -64.562280 36.378535 -26.390801 46.656655 -1.889134 -10.897121 0.587227 0.235230 0.306870 0.162970 -4.509896 -2.538772 -9.405547 22.246983 -10.867510 43.246040 -6.955369 -3.938309 17.284904 3.702833 1.269957 -10.168333 -3.480387 -7.955802 44.944595 19.905400 -13.261810 -26.460340 2.193457 -37.141916 3.158975 -16.583322 -42.528826 -4.251794 111.758761 -54.057818 -83.240039 -3.816703 1.713328 0.741900 -0.140210 0.123710 0.220130 -9.012770 33.223479 6.304639 -6.895440 20.706538 -13.891522 -118.106332 59.672385 -102.043281 2.040159 -0.922710 -0.269460 0.467330 0.012700 -0.034560 
-2.064940 18.030710 -3.647210 -34.137454 45.570285 -39.877635 -15.717379 12.625362 0.599731 20.066660 0.189706 -14.668570 8.848185 5.584344 33.735947 -0.397876 6.237846 2.251526 0.471990 0.176480 0.322000 18.403501 -6.743307 7.461507 -36.522440 9.084977 -66.136673 42.882938 -32.245839 50.131084 -2.395852 -12.207921 0.278445 0.133460 0.226450 0.191420 -4.534254 -2.414568 -9.712178 21.666342 -9.196576 43.886620 -7.400461 -1.774346 14.962970 4.403397 2.560616 -12.793317 -1.291840 -8.657303 51.659828 21.723410 -13.627180 -26.838210 -2.932359 -37.939373 7.764884 -27.560607 -42.401967 0.150384 120.098254 -67.537055 -117.017665 -3.780495 2.147478 0.829500 -0.204030 0.210450 0.169890 -5.446519 34.813371 5.804521 3.469298 20.820374 -17.236194 -158.769107 71.882838 -166.862268 1.715194 -1.846628 -0.237210 0.410150 0.003500 -0.064620 
-2.108070 18.084050 -3.602120 -34.190536 47.103637 -39.624654 -15.744188 12.536823 0.596897 20.056291 0.763912 -14.983199 7.588999 6.043333 32.497766 -0.370375 6.044467 2.285971 0.470780 0.165020 0.347670 18.367944 -6.708079 7.501511 -34.601509 12.004474 -66.450674 46.445361 -37.552310 54.478911 -2.848811 -13.399669 0.004313 0.085410 0.155380 0.197530 -4.640581 -2.207862 -9.883083 21.401580 -8.786527 45.265223 -8.601178 -0.777303 12.138542 4.601254 2.760319 -14.163656 -0.848928 -8.955687 56.300704 24.243470 -14.224690 -27.166920 -9.015770 -38.011943 9.301066 -35.964996 -37.101848 -5.485886 -170.192454 -80.601843 154.246874 -3.123699 2.720577 0.885260 -0.274120 0.279620 0.147220 0.075939 35.975550 6.245312 12.307914 20.343002 -19.442368 149.300303 71.678476 123.515798 1.931004 -0.722836 -0.201620 0.364570 -0.015250 -0.067950 
-2.145500 18.097750 -3.534650 -34.508116 48.614446 -39.197627 -15.780540 12.571013 0.665342 19.906255 1.161748 -15.769028 6.801420 6.343435 31.671990 -0.337673 5.876493 2.320279 0.459780 0.093230 0.443730 18.295977 -6.609557 7.550519 -31.490382 15.335130 -67.643605 47.023425 -43.450776 61.264094 -3.369030 -14.883405 -0.302059 -0.006920 0.028110 0.194290 -4.561760 -2.388132 -10.029800 19.998528 -8.321546 47.603460 -8.919920 0.144871 7.242278 4.107391 3.102952 -16.610481 -0.511319 -9.334703 61.610806 25.256610 -14.562130 -26.548140 -15.285565 -36.311596 10.246652 -43.170761 -30.508522 -5.008643 -121.021403 -73.185041 88.730243 -3.560396 2.183043 0.988230 -0.362830 0.365370 0.103570 6.889491 35.696756 8.655169 19.983695 19.426304 -16.389287 128.347006 65.634556 84.239809 2.635903 -0.570815 -0.186680 0.288470 -0.059730 -0.128610 
-2.191790 18.082960 -3.461820 -35.248342 50.795017 -39.515757 -15.821305 12.673568 0.831841 19.991843 1.412991 -17.064883 6.026004 6.846105 32.501098 -0.277444 6.007906 2.236150 0.411740 0.028500 0.471510 18.191893 -6.593237 7.400562 -27.294332 18.484154 -66.523835 45.734880 -48.065074 67.734998 -3.792174 -16.207469 -0.561297 -0.085790 -0.031850 0.205040 -4.410563 -2.646449 -10.091164 19.102681 -7.859536 50.057036 -8.795228 1.103653 2.061228 3.731425 2.801404 -17.399226 -1.547347 -9.710130 64.460331 25.588750 -15.406070 -26.893110 -20.445952 -33.252381 9.670352 -47.977576 -23.262177 -4.431151 -104.333280 -64.070627 60.684209 -3.467377 2.929637 1.037730 -0.404930 0.422240 0.049230 12.680100 33.754532 10.243160 25.358974 15.878352 -13.504308 114.485630 59.069439 59.333165 2.746806 -1.155271 -0.165390 0.253410 -0.050090 -0.145750 
-2.228560 18.032670 -3.375400 -36.510073 53.981395 -40.265137 -15.878690 12.798780 1.091969 20.013482 1.249970 -18.691491 4.890209 7.463228 33.774584 -0.239719 6.254109 2.138913 0.368750 -0.002980 0.397820 18.062592 -6.547992 7.190754 -22.964471 20.269536 -64.257861 43.671924 -52.314611 73.978941 -4.144889 -17.449953 -0.754659 -0.107590 0.002170 0.174050 -4.119150 -3.144694 -10.128342 17.049494 -6.789817 50.902603 -6.449064 1.676521 -0.976312 3.184529 1.532439 -17.230183 -4.099579 -8.867060 65.142405 26.857450 -16.906090 -26.098470 -23.717970 -30.518741 9.095999 -51.488600 -16.082324 -7.673066 -89.899864 -57.064330 42.069347 -3.304392 3.095474 1.042620 -0.406180 0.402960 0.060330 17.286307 32.495232 10.586435 28.408136 12.518300 -13.140472 98.591850 52.176409 39.533926 2.559138 -1.417480 -0.182140 0.284080 -0.024240 -0.122680 
